<svg width="501" height="501" viewBox="0 0 501 501" fill="none" xmlns="http://www.w3.org/2000/svg">
<path d="M333.872 211.035C345.732 217.696 326.454 250.386 337.037 284.005C347.606 317.625 326.387 337.141 320.139 360.664L337.037 474.457H237.736C237.736 474.457 240.023 386.933 236.592 373.228C233.162 359.523 208.5 349.241 208.5 322.043C208.5 294.845 280.426 268.642 302.164 284.005C302.177 244.88 316.456 201.257 333.872 211.035Z" fill="url(#paint0_linear_262_9967)"/>
<path d="M238.308 474.445C238.308 474.418 238.308 474.419 238.308 474.392C238.308 474.365 238.308 474.312 238.308 474.246C238.308 474.113 238.308 473.914 238.308 473.649C238.308 473.132 238.308 472.362 238.308 471.38C238.308 469.417 238.308 466.578 238.308 463.102C238.308 456.149 238.308 446.637 238.308 436.408C238.308 415.963 238.308 392.652 238.308 381.229C238.308 369.554 230.823 361.952 223.537 353.753C216.252 345.514 209.072 336.572 209.072 322.057C209.072 314.933 213.446 308.047 220.453 301.944C227.486 295.854 237.098 290.6 247.402 286.753C257.706 282.892 268.674 280.438 278.393 279.894C288.165 279.35 296.567 280.743 301.858 284.471L302.749 285.108V284.007C302.749 264.504 306.326 243.886 312.016 229.385C314.874 222.128 318.265 216.476 321.947 213.239C323.782 211.62 325.683 210.639 327.598 210.32C329.525 210.015 331.506 210.36 333.594 211.527C336.266 213.04 337.183 215.773 337.117 219.873C337.024 223.999 335.947 229.279 334.83 235.647C332.65 248.331 330.456 265.008 336.479 284.166C342.408 303.005 338.247 317.56 332.543 330.243C331.121 333.414 329.619 336.479 328.129 339.464C326.64 342.449 325.205 345.354 323.942 348.207C321.402 353.925 319.567 359.511 319.567 365.216V365.255V365.295L336.465 474.511" stroke="#1F2225" stroke-width="0.700684" stroke-miterlimit="10"/>
<path d="M285.079 343.894C285.079 343.894 236.592 344.438 226.288 335.297C215.985 326.156 284.056 313.141 284.056 313.141L285.079 343.894Z" fill="#1F2225"/>
<path d="M226.287 333.253L226.673 332.829L226.287 333.253ZM284.666 341.24L284.693 341.811L285.65 341.784L285.171 340.948L284.666 341.24ZM267.489 311.548L267.994 311.256L267.768 310.885L267.356 310.991L267.489 311.548ZM225.902 333.678C227.271 334.885 229.226 335.894 231.552 336.756C233.879 337.618 236.658 338.321 239.636 338.919C245.632 340.099 252.638 340.816 259.299 341.254C265.96 341.678 272.302 341.824 276.995 341.864C279.335 341.877 281.249 341.877 282.579 341.864C283.243 341.851 283.775 341.851 284.134 341.837C284.32 341.837 284.427 341.824 284.52 341.824C284.586 341.824 284.613 341.824 284.639 341.824C284.666 341.824 284.666 341.824 284.666 341.824C284.666 341.824 284.666 341.824 284.693 341.824C284.693 341.824 284.693 341.824 284.666 341.254C284.639 340.683 284.639 340.683 284.639 340.683H284.613C284.586 340.683 284.546 340.683 284.493 340.683C284.427 340.683 284.294 340.683 284.108 340.696C283.735 340.696 283.243 340.71 282.579 340.723C281.223 340.736 279.321 340.749 276.995 340.723C272.328 340.683 266.013 340.55 259.366 340.113C252.731 339.688 245.791 338.972 239.862 337.804C236.91 337.22 234.211 336.517 231.938 335.695C229.678 334.859 227.883 333.917 226.673 332.842L225.902 333.678ZM285.158 340.962L267.994 311.27L266.984 311.84L284.147 341.532L285.158 340.962ZM267.489 311.548C267.356 310.991 267.356 310.991 267.356 310.991C267.329 310.991 267.329 310.991 267.316 311.004C267.289 311.017 267.276 311.017 267.223 311.031C267.103 311.057 266.97 311.097 266.784 311.137C266.399 311.23 265.84 311.376 265.162 311.548C263.766 311.906 261.798 312.437 259.459 313.1C254.765 314.427 248.65 316.285 242.84 318.434C237.03 320.57 231.486 323.024 228.056 325.532C226.341 326.779 225.051 328.106 224.572 329.499C224.32 330.215 224.28 330.945 224.506 331.661C224.732 332.378 225.211 333.041 225.902 333.665L226.686 332.816C226.088 332.298 225.742 331.794 225.609 331.316C225.45 330.852 225.476 330.374 225.649 329.87C226.022 328.822 227.045 327.668 228.72 326.461C232.044 324.046 237.442 321.645 243.239 319.508C249.009 317.372 255.124 315.528 259.764 314.202C262.104 313.538 264.072 313.021 265.468 312.663C266.159 312.477 266.704 312.344 267.077 312.251C267.263 312.211 267.396 312.172 267.515 312.145C267.555 312.132 267.582 312.119 267.608 312.119C267.635 312.119 267.635 312.105 267.648 312.105C267.635 312.105 267.635 312.105 267.489 311.548Z" fill="#1F2225"/>
<path d="M273.061 303.283C273.061 303.283 287.206 257.431 299.159 250.572C311.111 243.726 306.71 296.451 306.71 296.451L273.061 303.283Z" fill="#1F2225"/>
<path d="M299.145 250.574L299.438 251.065L299.145 250.574ZM273.06 303.285L272.515 303.112L272.223 304.028L273.18 303.842L273.06 303.285ZM306.71 296.452L306.83 297.009L307.268 296.93L307.295 296.505L306.71 296.452ZM298.879 250.083C297.297 250.998 295.715 252.524 294.159 254.448C292.604 256.385 291.048 258.773 289.533 261.413C286.515 266.707 283.603 273.102 281.09 279.271C278.578 285.44 276.424 291.397 274.908 295.815C274.15 298.018 273.539 299.849 273.127 301.109C272.927 301.746 272.781 302.237 272.675 302.582C272.635 302.754 272.582 302.887 272.555 302.966C272.528 303.006 272.528 303.046 272.515 303.059C272.515 303.072 272.515 303.086 272.515 303.086C272.515 303.086 272.515 303.086 272.515 303.099C272.515 303.099 272.515 303.099 273.06 303.272C273.605 303.444 273.605 303.444 273.605 303.444C273.605 303.431 273.605 303.431 273.605 303.417C273.605 303.391 273.632 303.364 273.632 303.325C273.659 303.232 273.698 303.112 273.765 302.94C273.858 302.608 274.017 302.104 274.217 301.48C274.629 300.22 275.227 298.402 275.985 296.2C277.501 291.795 279.641 285.865 282.141 279.722C284.654 273.579 287.539 267.224 290.543 261.997C292.032 259.383 293.548 257.062 295.05 255.178C296.566 253.294 298.028 251.887 299.451 251.078L298.879 250.083ZM273.167 303.842L306.816 297.009L306.59 295.895L272.941 302.728L273.167 303.842ZM306.71 296.452C307.282 296.505 307.282 296.492 307.282 296.492C307.282 296.492 307.282 296.492 307.282 296.479C307.282 296.465 307.282 296.465 307.282 296.452C307.308 296.426 307.308 296.386 307.308 296.346C307.308 296.24 307.335 296.094 307.335 295.908C307.375 295.523 307.401 294.953 307.468 294.236C307.561 292.804 307.681 290.76 307.787 288.346C308.013 283.503 308.199 277.108 307.986 270.926C307.787 264.757 307.229 258.747 305.926 254.673C305.287 252.657 304.437 251.025 303.267 250.123C302.668 249.658 301.99 249.393 301.206 249.393C300.475 249.38 299.677 249.619 298.866 250.083L299.438 251.078C300.129 250.693 300.701 250.534 301.206 250.534C301.685 250.547 302.15 250.707 302.562 251.038C303.453 251.715 304.211 253.068 304.822 255.032C306.085 258.932 306.657 264.81 306.83 270.966C307.042 277.108 306.856 283.463 306.63 288.293C306.511 290.707 306.404 292.737 306.311 294.157C306.271 294.873 306.218 295.431 306.178 295.815C306.178 296.001 306.152 296.16 306.152 296.253C306.152 296.306 306.152 296.346 306.152 296.359C306.152 296.373 306.152 296.386 306.152 296.386L306.125 296.399C306.125 296.399 306.138 296.412 306.71 296.452Z" fill="#1F2225"/>
<path d="M167.033 180.785C161.356 191.412 183.199 208.076 193.237 216.275C208.752 228.932 216.038 205.9 206.718 198.497C186.576 182.523 172.71 170.158 167.033 180.785Z" fill="white"/>
<path d="M207.063 197.994C197.012 190.02 188.45 182.896 181.723 179.114C178.359 177.231 175.355 176.129 172.815 176.222C171.539 176.262 170.343 176.62 169.292 177.337C168.215 178.053 167.325 179.115 166.567 180.521C165.011 183.453 165.37 186.717 166.819 189.98C168.255 193.244 170.821 196.627 173.852 199.904C179.875 206.458 187.879 212.694 192.891 216.78C196.826 219.991 200.336 221.013 203.234 220.482C206.159 219.951 208.38 217.881 209.762 215.175C212.461 209.828 211.956 201.881 207.063 197.994Z" stroke="#1F2225" stroke-width="0.700684" stroke-miterlimit="10"/>
<path d="M176.938 202.321C186.51 201.843 189.528 198.248 191.815 187.475V217.167L176.938 202.321Z" fill="#1F2225" stroke="#1F2225" stroke-width="0.700684"/>
<path d="M215.612 102.603L316.215 117.755C322.158 118.643 326.24 124.176 325.349 130.106L294.77 332.247C293.88 338.177 288.335 342.25 282.393 341.361L181.789 326.21C175.846 325.321 171.764 319.789 172.655 313.858L203.234 111.718C204.138 105.787 209.682 101.701 215.612 102.603Z" fill="white" stroke="#1F2225" stroke-width="0.700684"/>
<path d="M319.819 288.265C305.54 273.763 277.076 316.763 286.076 353.725C295.077 390.661 345.093 328.345 319.819 288.265Z" fill="white"/>
<path d="M198.781 236.072L215.798 125.277C216.33 121.841 219.534 119.479 222.978 119.997L238.4 122.319C238.4 122.319 239.158 125.251 240.886 127.082C242.96 129.271 245.42 129.854 246.297 130.014L277.793 134.856C278.804 134.949 281.861 135.082 284.786 133.105C286.422 132.004 287.951 129.775 287.951 129.775L304.131 132.216C307.587 132.733 309.954 135.957 309.435 139.407L282.606 314.15C282.074 317.586 278.87 319.948 275.413 319.431L194.247 307.198C190.79 306.681 188.424 303.457 188.942 300.007L189.354 297.354" fill="#CAF0F8"/>
<path d="M189.793 297.592L189.381 300.246C188.849 303.695 191.229 306.906 194.686 307.437L235.269 313.553L275.852 319.669C279.295 320.186 282.513 317.825 283.045 314.389L284.693 303.682L195.204 290.242" fill="#90E0EF"/>
<path d="M284.441 345.937C284.441 311.19 295.676 294.54 307.854 286.805" stroke="#1F2225" stroke-width="0.700684" stroke-miterlimit="10"/>
<path d="M191.283 284.857L192.28 278.422" stroke="#1F2225" stroke-width="0.700684" stroke-miterlimit="10"/>
<path d="M209.602 243.862C207.834 241.434 205.122 239.285 201.998 237.348C195.749 233.487 187.692 230.382 181.789 227.782C177.123 225.739 173.201 225.619 170.183 226.774C167.138 227.915 165.037 230.316 163.934 233.155C161.754 238.847 163.681 246.25 170.276 249.036C180.008 253.149 189.567 256.877 197.039 258.164C200.775 258.801 204.045 258.841 206.558 257.965C209.124 257.076 210.905 255.219 211.597 252.141C212.275 249.063 211.411 246.303 209.602 243.862Z" fill="white" stroke="#1F2225" stroke-width="0.700684" stroke-miterlimit="10"/>
<path d="M208.301 268.019C208.075 266.746 207.476 265.552 206.626 264.464C204.95 262.288 202.212 260.391 198.981 258.719C192.453 255.376 183.665 252.842 176.433 250.918C171.487 249.604 167.644 250.109 164.826 251.714C162.007 253.332 160.319 256.039 159.681 259.037C158.404 265.021 161.422 272.092 168.216 273.804C181.79 277.227 190.645 279.403 196.575 279.442C199.553 279.456 201.866 278.938 203.687 277.731C205.522 276.51 206.825 274.613 207.849 272.013C208.394 270.646 208.527 269.32 208.301 268.019Z" fill="white" stroke="#1F2225" stroke-width="0.700684" stroke-miterlimit="10"/>
<path d="M193.968 287.96C193.103 286.129 191.468 284.325 189.461 282.613C185.432 279.19 179.662 276.006 174.464 273.724C170.395 271.946 167.112 271.721 164.639 272.543C162.139 273.366 160.477 275.25 159.666 277.545C158.044 282.096 159.853 288.146 164.705 290.719C174.637 295.987 180.978 298.388 185.286 298.64C187.48 298.773 189.181 298.348 190.577 297.459C192 296.57 193.05 295.217 193.968 293.598C195.018 291.768 194.858 289.817 193.968 287.96Z" fill="white" stroke="#1F2225" stroke-width="0.700684" stroke-miterlimit="10"/>
<path d="M350.437 125.793L351.581 120.367C351.594 120.314 351.634 120.261 351.687 120.221C351.74 120.181 351.793 120.168 351.86 120.168C351.926 120.168 351.98 120.195 352.033 120.221C352.086 120.261 352.113 120.314 352.139 120.367L353.282 125.793C353.296 125.846 353.322 125.899 353.349 125.939C353.389 125.979 353.442 126.006 353.495 126.019L358.92 127.16C358.986 127.173 359.039 127.213 359.079 127.253C359.119 127.306 359.146 127.372 359.146 127.438C359.146 127.505 359.119 127.571 359.079 127.624C359.039 127.677 358.986 127.704 358.92 127.717L353.495 128.858C353.442 128.871 353.389 128.898 353.349 128.938C353.309 128.977 353.282 129.031 353.269 129.084L352.139 134.51C352.126 134.576 352.086 134.629 352.046 134.669C351.993 134.709 351.926 134.735 351.86 134.735C351.793 134.735 351.727 134.709 351.674 134.669C351.621 134.629 351.594 134.576 351.581 134.51L350.451 129.084C350.437 129.031 350.411 128.977 350.371 128.938C350.331 128.898 350.278 128.871 350.225 128.858L344.8 127.717C344.734 127.704 344.681 127.664 344.641 127.624C344.601 127.571 344.574 127.505 344.574 127.438C344.574 127.372 344.601 127.306 344.641 127.253C344.681 127.2 344.734 127.173 344.8 127.16L350.238 126.019C350.291 126.006 350.344 125.979 350.384 125.953C350.397 125.886 350.424 125.846 350.437 125.793Z" fill="white" stroke="#1F2225" stroke-width="0.700684" stroke-miterlimit="10"/>
<path d="M143.979 346.682C145.271 346.682 146.319 345.636 146.319 344.347C146.319 343.057 145.271 342.012 143.979 342.012C142.686 342.012 141.639 343.057 141.639 344.347C141.639 345.636 142.686 346.682 143.979 346.682Z" fill="#1F2225"/>
<path d="M296.181 95.7313C298.017 95.7313 299.505 94.2463 299.505 92.4145C299.505 90.5826 298.017 89.0977 296.181 89.0977C294.346 89.0977 292.857 90.5826 292.857 92.4145C292.857 94.2463 294.346 95.7313 296.181 95.7313Z" stroke="#1F2225" stroke-width="0.700684" stroke-miterlimit="10"/>
<path d="M282.592 208.343L220.092 198.95C217.22 198.512 215.239 195.845 215.665 192.966L217.646 179.858C218.085 176.992 220.757 175.016 223.642 175.44L286.142 184.833C289.014 185.271 290.995 187.938 290.569 190.817L288.588 203.925C288.15 206.791 285.464 208.768 282.592 208.343Z" fill="#FFF8C2"/>
<path d="M279.149 248.134L211.929 238.024C208.632 237.533 206.358 234.455 206.85 231.165L213.524 186.932C214.016 183.641 217.101 181.373 220.398 181.864L287.618 191.973C290.915 192.464 293.188 195.542 292.696 198.832L286.022 243.066C285.517 246.369 282.446 248.638 279.149 248.134Z" fill="#1F2225"/>
<path d="M287.644 191.996L270.268 189.383C264.777 193.801 258.01 196.998 250.564 198.63C256.122 211.725 268.154 221.702 283.27 223.984C285.145 224.262 287.006 224.422 288.854 224.448L292.723 198.856C293.215 195.565 290.942 192.487 287.644 191.996Z" fill="white"/>
<path d="M250.565 198.631C248.877 194.65 247.787 190.378 247.401 185.947L220.439 181.887C217.141 181.396 214.057 183.652 213.565 186.955L212.621 193.191C218.019 196.136 224.135 198.246 230.742 199.241C237.616 200.276 244.33 199.997 250.565 198.631Z" fill="#FFF8C2"/>
<path d="M250.605 198.67C258.064 197.038 264.818 193.841 270.309 189.423L247.428 185.986C247.827 190.404 248.917 194.676 250.605 198.67Z" fill="#D3FFEF"/>
<path d="M250.458 198.672C244.223 200.039 237.509 200.304 230.635 199.282C224.028 198.287 217.912 196.178 212.514 193.232L206.784 231.23C206.292 234.52 208.552 237.598 211.863 238.089L279.083 248.199C282.38 248.69 285.464 246.434 285.956 243.131L288.775 224.503C286.927 224.464 285.065 224.318 283.191 224.039C268.048 221.744 256.002 211.767 250.458 198.672Z" stroke="#1F2225" stroke-width="0.700684" stroke-miterlimit="10"/>
<path d="M287.564 191.918L270.188 189.305C264.697 193.723 257.93 196.92 250.484 198.552C256.042 211.647 268.074 221.624 283.19 223.906C285.065 224.184 286.926 224.344 288.774 224.37L292.643 198.778C293.135 195.487 290.861 192.409 287.564 191.918Z" stroke="#1F2225" stroke-width="0.700684" stroke-miterlimit="10"/>
<path d="M250.471 198.553C248.783 194.572 247.693 190.3 247.307 185.869L220.345 181.809C217.048 181.318 213.963 183.574 213.471 186.877L212.527 193.113C217.925 196.058 224.041 198.168 230.648 199.163C237.522 200.198 244.249 199.919 250.471 198.553Z" stroke="#1F2225" stroke-width="0.700684" stroke-miterlimit="10"/>
<path d="M250.525 198.578C257.984 196.946 264.738 193.749 270.228 189.331L247.348 185.895C247.747 190.326 248.823 194.598 250.525 198.578Z" stroke="#1F2225" stroke-width="0.700684" stroke-miterlimit="10"/>
<path d="M278.392 242.719L269.577 241.392C268.859 241.286 268.367 240.609 268.473 239.893L268.832 237.518C268.939 236.802 269.617 236.311 270.335 236.417L279.149 237.743C279.867 237.85 280.359 238.526 280.253 239.243L279.894 241.618C279.774 242.334 279.109 242.825 278.392 242.719Z" fill="white"/>
<path d="M267.169 176.05L244.754 172.68C244.076 172.574 243.61 171.95 243.703 171.274L244.7 164.64C244.807 163.963 245.432 163.499 246.11 163.592L268.525 166.962C269.203 167.068 269.668 167.691 269.575 168.368L268.578 175.002C268.472 175.692 267.847 176.156 267.169 176.05Z" fill="#1F2225" stroke="#1F2225" stroke-width="0.700684" stroke-miterlimit="10"/>
<path d="M205.801 258.242L242.123 263.708C242.801 263.814 243.266 264.438 243.173 265.115L242.017 272.796C241.91 273.473 241.285 273.937 240.607 273.845L208.167 268.962" stroke="#1F2225" stroke-width="0.700684" stroke-miterlimit="10"/>
<path d="M206.106 275.078L239.65 280.12C240.328 280.226 240.793 280.849 240.7 281.526L239.543 289.208C239.437 289.884 238.812 290.349 238.134 290.256L199.951 284.511C199.273 284.405 198.807 283.781 198.901 283.105L199.432 279.616" stroke="#1F2225" stroke-width="0.700684" stroke-miterlimit="10"/>
<path d="M278.896 279.602L265.162 277.533C264.484 277.427 264.018 276.803 264.111 276.126L265.268 268.445C265.374 267.768 265.999 267.304 266.677 267.397L280.411 269.466C281.089 269.572 281.555 270.196 281.462 270.873L280.305 278.554C280.212 279.231 279.574 279.695 278.896 279.602Z" stroke="#1F2225" stroke-width="0.700684" stroke-miterlimit="10"/>
<path d="M276.423 296.013L262.689 293.943C262.011 293.837 261.546 293.213 261.639 292.537L262.795 284.855C262.902 284.178 263.527 283.714 264.205 283.807L277.939 285.876C278.617 285.983 279.082 286.606 278.989 287.283L277.832 294.965C277.739 295.654 277.101 296.119 276.423 296.013Z" stroke="#1F2225" stroke-width="0.700684" stroke-miterlimit="10"/>
<path d="M211.584 250.162L240.182 254.461" stroke="#1F2225" stroke-width="0.700684" stroke-miterlimit="10"/>
<path d="M194.686 290.135L284.201 303.601" stroke="#1F2225" stroke-width="0.700684" stroke-miterlimit="10"/>
<path d="M286.886 164.431L231.06 156.033C230.382 155.926 229.917 155.303 230.01 154.626L231.1 147.449C231.206 146.772 231.831 146.308 232.509 146.4L288.335 154.799C289.013 154.905 289.479 155.528 289.386 156.205L288.295 163.383C288.189 164.072 287.564 164.537 286.886 164.431Z" stroke="#1F2225" stroke-width="0.700684" stroke-miterlimit="10"/>
<path d="M242.668 140.998L278.432 146.371" stroke="#1F2225" stroke-width="0.700684" stroke-miterlimit="10"/>
<path d="M198.833 236.033L215.851 125.238C216.383 121.802 219.587 119.44 223.03 119.958L238.453 122.28C238.453 122.28 239.211 125.212 240.939 127.043C243.013 129.232 245.472 129.815 246.35 129.975L277.846 134.817C278.856 134.91 281.914 135.043 284.839 133.066C286.474 131.965 288.003 129.736 288.003 129.736L304.183 132.177C307.64 132.694 310.007 135.918 309.488 139.368L282.659 314.111C282.127 317.547 278.923 319.909 275.466 319.392L194.3 307.159C190.843 306.642 188.477 303.418 188.995 299.968L189.407 297.978" stroke="#1F2225" stroke-width="0.700684" stroke-miterlimit="10"/>
<path d="M270.807 129.268L254.236 126.744C252.996 126.55 252.12 125.385 252.314 124.147C252.509 122.91 253.677 122.036 254.918 122.23L271.488 124.754C272.729 124.948 273.605 126.113 273.41 127.351C273.24 128.613 272.072 129.462 270.807 129.268Z" fill="#1F2225"/>
<path d="M223.908 189.795L221.808 189.476C221.741 189.463 221.688 189.516 221.688 189.583C221.701 189.967 221.941 190.246 222.419 190.326C222.712 190.365 222.991 190.326 223.257 190.113C223.27 190.1 223.297 190.1 223.31 190.113L223.749 190.631C223.762 190.644 223.762 190.684 223.735 190.697C223.31 191.029 222.858 191.148 222.3 191.069C221.143 190.896 220.771 189.981 220.917 189.078C221.05 188.19 221.661 187.38 222.778 187.553C223.829 187.712 224.214 188.561 224.068 189.503C224.055 189.583 224.041 189.649 224.028 189.729C224.015 189.768 223.962 189.808 223.908 189.795ZM223.337 189.039C223.39 188.601 223.097 188.296 222.672 188.229C222.18 188.15 221.887 188.468 221.794 188.8L223.337 189.039Z" fill="#1F2225"/>
<path d="M218.737 186.929C218.591 186.903 218.431 186.89 218.272 186.916C218.112 186.929 217.966 186.996 217.82 187.049C217.713 187.089 217.607 187.115 217.501 187.062C217.408 187.022 217.341 186.929 217.314 186.823V186.81C217.314 186.797 217.301 186.784 217.288 186.784L216.916 186.73C216.889 186.73 216.876 186.744 216.876 186.77L216.145 191.586C216.145 191.613 216.158 191.626 216.171 191.639L216.916 191.759C216.942 191.759 216.956 191.745 216.956 191.719L217.208 190.074C217.208 190.034 217.261 190.021 217.275 190.047C217.461 190.299 217.82 190.485 218.179 190.551C219.03 190.684 219.747 190.1 219.92 188.973C220.093 187.925 219.681 187.075 218.737 186.929ZM218.232 189.795C217.793 189.742 217.447 189.318 217.474 188.88C217.501 188.097 217.833 187.553 218.538 187.659C219.096 187.752 219.295 188.163 219.189 188.853C219.083 189.503 218.764 189.862 218.232 189.795Z" fill="#1F2225"/>
<path d="M230.277 190.02C230.25 190.352 230.157 190.697 230.117 191.002C230.064 191.373 229.997 191.758 229.944 192.13C229.944 192.156 229.918 192.17 229.904 192.17L229.16 192.063C229.133 192.063 229.12 192.037 229.133 192.01L229.413 190.153C229.452 189.888 229.506 189.33 228.96 189.237C228.269 189.131 228.176 189.901 228.083 190.577L227.897 191.825C227.897 191.851 227.87 191.864 227.857 191.864L227.112 191.758C227.086 191.758 227.073 191.732 227.086 191.705L227.365 189.848C227.405 189.582 227.458 189.025 226.926 188.932C226.235 188.826 226.142 189.596 226.036 190.272L225.849 191.519C225.849 191.546 225.823 191.559 225.81 191.559L225.065 191.453C225.038 191.453 225.025 191.427 225.038 191.4L225.53 188.096C225.53 188.07 225.557 188.057 225.584 188.057L225.836 188.096L225.942 188.11C225.969 188.11 225.969 188.136 225.982 188.15C226.009 188.335 226.208 188.441 226.381 188.415C226.488 188.402 226.567 188.335 226.66 188.295C226.847 188.203 227.006 188.203 227.245 188.242C227.604 188.295 227.884 188.388 228.003 188.932C228.336 188.468 228.867 188.481 229.306 188.548C229.705 188.614 230.064 188.839 230.21 189.224C230.29 189.463 230.303 189.742 230.277 190.02Z" fill="#1F2225"/>
<path d="M231.194 190.617C231.34 189.662 232.098 188.959 233.149 189.118C234.186 189.277 234.717 190.166 234.571 191.122C234.425 192.077 233.654 192.78 232.617 192.621C231.567 192.475 231.048 191.573 231.194 190.617ZM233.747 191.015C233.827 190.458 233.654 189.941 233.042 189.848C232.417 189.755 232.098 190.193 232.019 190.75C231.939 191.294 232.112 191.825 232.723 191.918C233.335 192.011 233.667 191.559 233.747 191.015Z" fill="#1F2225"/>
<path d="M276.73 37.9256C275.007 40.8139 271.817 41.9286 269.649 40.6413C269.121 40.3278 268.612 39.6646 268.22 39.0321C268.029 38.7234 267.874 38.4358 267.767 38.2254C267.714 38.1204 267.673 38.035 267.645 37.9763C267.638 37.9603 267.631 37.9462 267.625 37.9343C267.555 37.2956 267.674 36.4918 267.926 35.6533C268.184 34.7977 268.571 33.9348 268.996 33.2215C269.182 32.91 269.531 32.564 270.001 32.2053C270.465 31.8507 271.025 31.5016 271.606 31.1779C272.709 30.5637 273.866 30.0544 274.547 29.7852C274.569 29.7935 274.597 29.8047 274.631 29.8197C274.809 29.897 275.144 30.0643 275.745 30.4208C277.913 31.7081 278.453 35.0372 276.73 37.9256Z" fill="#FFF8C2" stroke="#1F2225" stroke-width="0.700684"/>
<path d="M275.437 37.0475C274.581 38.4829 273.375 39.5112 272.132 40.0223C270.89 40.5334 269.632 40.5213 268.626 39.924C267.62 39.3267 267.01 38.23 266.867 36.8966C266.725 35.5631 267.056 34.0156 267.912 32.5801C268.768 31.1447 269.973 30.1164 271.216 29.6053C272.459 29.0943 273.716 29.1063 274.722 29.7036C275.728 30.3009 276.339 31.3976 276.481 32.731C276.624 34.0645 276.293 35.6121 275.437 37.0475Z" fill="#FFF8C2" stroke="#1F2225" stroke-width="0.700684"/>
<path d="M229.475 213.631C229.899 210.954 232.412 209.128 235.088 209.552L264.165 214.157C266.841 214.581 268.667 217.095 268.243 219.771L265.941 234.309C265.517 236.986 263.004 238.812 260.327 238.388L231.251 233.783C228.574 233.359 226.748 230.845 227.172 228.169L229.475 213.631Z" fill="white"/>
<path d="M241.47 200.628C242.317 195.275 247.344 191.623 252.697 192.471C258.05 193.318 261.702 198.345 260.854 203.698L259.319 213.39L239.934 210.32L241.47 200.628Z" fill="white"/>
<path d="M248.092 221.547L247.324 226.393M231.251 233.783L260.327 238.388C263.004 238.812 265.517 236.986 265.941 234.309L268.243 219.771C268.667 217.095 266.841 214.581 264.165 214.157L235.088 209.552C232.412 209.128 229.899 210.954 229.475 213.631L227.172 228.169C226.748 230.845 228.574 233.359 231.251 233.783ZM259.319 213.39L260.854 203.698C261.702 198.345 258.05 193.318 252.697 192.471C247.344 191.623 242.317 195.275 241.47 200.628L239.934 210.32L259.319 213.39Z" stroke="#171717" stroke-width="0.901189" stroke-linecap="round"/>
<defs>
<linearGradient id="paint0_linear_262_9967" x1="286.525" y1="373.929" x2="296.783" y2="452.742" gradientUnits="userSpaceOnUse">
<stop stop-color="white"/>
<stop offset="1" stop-color="white" stop-opacity="0"/>
</linearGradient>
</defs>
</svg>
